<?xml version="1.0" encoding="UTF-8" standalone="no"?>
<svg
   xmlns:dc="http://purl.org/dc/elements/1.1/"
   xmlns:cc="http://creativecommons.org/ns#"
   xmlns:rdf="http://www.w3.org/1999/02/22-rdf-syntax-ns#"
   xmlns:svg="http://www.w3.org/2000/svg"
   xmlns="http://www.w3.org/2000/svg"
   xmlns:sodipodi="http://sodipodi.sourceforge.net/DTD/sodipodi-0.dtd"
   xmlns:inkscape="http://www.inkscape.org/namespaces/inkscape"
   width="128"
   height="219.91991"
   viewBox="0 0 128 219.91991"
   version="1.1"
   id="svg905"
   sodipodi:docname="dryer.svg"
   inkscape:version="1.0.1 (0767f8302a, 2020-10-17)">
  <metadata
     id="metadata911">
    <rdf:RDF>
      <cc:Work
         rdf:about="">
        <dc:format>image/svg+xml</dc:format>
        <dc:type
           rdf:resource="http://purl.org/dc/dcmitype/StillImage" />
        <dc:title></dc:title>
      </cc:Work>
    </rdf:RDF>
  </metadata>
  <defs
     id="defs909" />
  <sodipodi:namedview
     pagecolor="#ffffff"
     bordercolor="#666666"
     borderopacity="1"
     objecttolerance="10"
     gridtolerance="10"
     guidetolerance="10"
     inkscape:pageopacity="0"
     inkscape:pageshadow="2"
     inkscape:window-width="1920"
     inkscape:window-height="964"
     id="namedview907"
     showgrid="false"
     showborder="false"
     fit-margin-top="0"
     fit-margin-left="0"
     fit-margin-right="0"
     fit-margin-bottom="0"
     inkscape:snap-bbox="false"
     inkscape:zoom="1.4640152"
     inkscape:cx="-21.000712"
     inkscape:cy="156.51862"
     inkscape:window-x="0"
     inkscape:window-y="27"
     inkscape:window-maximized="1"
     inkscape:current-layer="svg905" />
  <path
     id="rect1556"
     style="fill:#1a1a1a;stroke-width:0.926857"
     d="M 6.017578,0 C 2.684199,0 0,2.68419 0,6.01757 V 34.82226 H 128 V 6.01757 C 128,2.68419 125.3158,0 121.98242,0 Z m 80.216796,9.39062 h 28.207036 c 0.23397,0 0.42187,0.18986 0.42187,0.42383 v 14.5918 c 0,0.23397 -0.1879,0.42187 -0.42187,0.42187 H 86.234374 c -0.233975,0 -0.421874,-0.1879 -0.421874,-0.42187 V 9.81445 c 0,-0.23397 0.187902,-0.42383 0.421874,-0.42383 z m -69.158203,3.71875 a 4,4 0 0 1 0.06055,0 4,4 0 0 1 4,4 4,4 0 0 1 -4,4 4,4 0 0 1 -4,-4 4,4 0 0 1 3.939453,-4 z M 0,37.82226 V 190.0996 H 128 V 37.82226 Z m 63.947265,22.13867 a 50,50 0 0 1 0.05273,0 50,50 0 0 1 50.000005,50 50,50 0 0 1 -50.000005,50 50,50 0 0 1 -50,-50 50,50 0 0 1 49.947265,-50 z M 0,193.0996 v 20.80469 c -9.9999972e-7,3.33337 2.684199,6.01562 6.017578,6.01562 H 121.98242 c 3.33338,0 6.01758,-2.68225 6.01758,-6.01562 V 193.0996 Z" />
  <path
     id="rect913"
     style="fill:#1a1a1a;stroke-width:0.843171"
     d="m -149.21255,33.4069 c -2.75861,0 -4.97852,2.2199 -4.97852,4.97851 V 60.32096 H -26.191076 V 38.38541 c -1e-6,-2.75861 -2.221856,-4.97851 -4.980469,-4.97851 z m 44.42968,6.43945 h 29.179685 c 0.227358,0 0.410156,0.1828 0.410156,0.41016 v 14.17968 c 0,0.22736 -0.182798,0.41016 -0.410156,0.41016 h -29.179685 c -0.22736,0 -0.41015,-0.1828 -0.41015,-0.41016 V 40.25651 c 0,-0.22736 0.18279,-0.41016 0.41015,-0.41016 z m -34.4707,3.95312 a 3.5458438,3.5458438 0 0 1 0.0273,0 3.5458438,3.5458438 0 0 1 3.54493,3.54688 3.5458438,3.5458438 0 0 1 -3.54493,3.54492 3.5458438,3.5458438 0 0 1 -3.54687,-3.54492 3.5458438,3.5458438 0 0 1 3.51953,-3.54688 z m -14.9375,19.52149 V 185.49284 H -26.191076 V 63.32096 Z m 63.923828,21.08594 a 40,40 0 0 1 0.0762,0 40,40 0 0 1 39.999996,40 40,40 0 0 1 -39.999996,40 40,40 0 0 1 -39.999998,-40 40,40 0 0 1 39.923828,-40 z m -63.923828,104.08594 v 21.93359 c 0,2.75861 2.21991,4.98047 4.97852,4.98047 h 118.041005 c 2.758613,0 4.980469,-2.22186 4.980469,-4.98047 v -21.93359 z" />
  <path
     id="rect1590"
     style="fill:#1a1a1a;fill-opacity:1;stroke-width:0.549532"
     d="m -464.08982,77.23405 c -1.16453,0 -2.10156,0.93899 -2.10156,2.10352 v 140.7207 c 0,1.16453 0.93703,2.10156 2.10156,2.10156 h 44.27539 c 1.16453,0 2.10156,-0.93703 2.10156,-2.10156 v -48.80274 h 176.07423 v 48.80274 c 0,1.16453 0.93703,2.10156 2.10156,2.10156 h 44.27539 c 1.16453,0 2.10156,-0.93703 2.10156,-2.10156 V 79.33757 c 0,-1.16453 -0.93703,-2.10352 -2.10156,-2.10352 h -44.27539 c -1.16453,0 -2.10156,0.93899 -2.10156,2.10352 v 20.88867 H -417.71287 V 79.33757 c 0,-1.16453 -0.93703,-2.10352 -2.10156,-2.10352 z m 235.74414,9.769534 h 21.89258 c 0.7168,0 1.29297,0.57617 1.29297,1.292969 V 102.2985 c 0,0.7168 -0.57617,1.29297 -1.29297,1.29297 h -21.89258 c -0.71679,0 -1.29492,-0.57617 -1.29492,-1.29297 V 88.296553 c 0,-0.716799 0.57813,-1.292969 1.29492,-1.292969 z m -189.36719,16.222656 h 176.07423 v 3.82031 h -176.07423 z m 200.30469,7.17187 a 5.5585876,5.5585876 0 0 1 0.008,0 5.5585876,5.5585876 0 0 1 5.55859,5.5586 5.5585876,5.5585876 0 0 1 -5.55859,5.55859 5.5585876,5.5585876 0 0 1 -5.5586,-5.55859 5.5585876,5.5585876 0 0 1 5.55078,-5.5586 z m -200.30469,38.5625 h 176.07423 v 8.37305 h -176.07423 z" />
</svg>
