<?xml version="1.0" encoding="UTF-8" standalone="no"?>
<svg
   xmlns:dc="http://purl.org/dc/elements/1.1/"
   xmlns:cc="http://creativecommons.org/ns#"
   xmlns:rdf="http://www.w3.org/1999/02/22-rdf-syntax-ns#"
   xmlns:svg="http://www.w3.org/2000/svg"
   xmlns="http://www.w3.org/2000/svg"
   xmlns:sodipodi="http://sodipodi.sourceforge.net/DTD/sodipodi-0.dtd"
   xmlns:inkscape="http://www.inkscape.org/namespaces/inkscape"
   width="273.03125"
   height="144.92578"
   viewBox="0 0 273.03124 144.92578"
   version="1.1"
   id="svg905"
   sodipodi:docname="ironer.svg"
   inkscape:version="1.0.1 (0767f8302a, 2020-10-17)">
  <metadata
     id="metadata911">
    <rdf:RDF>
      <cc:Work
         rdf:about="">
        <dc:format>image/svg+xml</dc:format>
        <dc:type
           rdf:resource="http://purl.org/dc/dcmitype/StillImage" />
        <dc:title></dc:title>
      </cc:Work>
    </rdf:RDF>
  </metadata>
  <defs
     id="defs909" />
  <sodipodi:namedview
     pagecolor="#ffffff"
     bordercolor="#666666"
     borderopacity="1"
     objecttolerance="10"
     gridtolerance="10"
     guidetolerance="10"
     inkscape:pageopacity="0"
     inkscape:pageshadow="2"
     inkscape:window-width="1920"
     inkscape:window-height="964"
     id="namedview907"
     showgrid="false"
     showborder="false"
     fit-margin-top="0"
     fit-margin-left="0"
     fit-margin-right="0"
     fit-margin-bottom="0"
     inkscape:snap-bbox="false"
     inkscape:zoom="1.4640152"
     inkscape:cx="445.19067"
     inkscape:cy="79.284574"
     inkscape:window-x="0"
     inkscape:window-y="27"
     inkscape:window-maximized="1"
     inkscape:current-layer="svg905" />
  <path
     id="rect1556"
     style="fill:#1a1a1a;stroke-width:0.926857"
     d="m 472.20896,-77.23405 c -3.33338,0 -6.01758,2.68419 -6.01758,6.01757 v 28.80469 h 128 v -28.80469 c 0,-3.33338 -2.6842,-6.01757 -6.01758,-6.01757 z m 80.21679,9.39062 h 28.20704 c 0.23397,0 0.42187,0.18986 0.42187,0.42383 v 14.5918 c 0,0.23397 -0.1879,0.42187 -0.42187,0.42187 h -28.20704 c -0.23397,0 -0.42187,-0.1879 -0.42187,-0.42187 v -14.5918 c 0,-0.23397 0.1879,-0.42383 0.42187,-0.42383 z m -69.1582,3.71875 a 4,4 0 0 1 0.0606,0 4,4 0 0 1 4,4 4,4 0 0 1 -4,4 4,4 0 0 1 -4,-4 4,4 0 0 1 3.93945,-4 z m -17.07617,24.71289 v 152.27734 h 128 V -39.41179 Z m 63.94726,22.13867 a 50,50 0 0 1 0.0527,0 50,50 0 0 1 50.00001,50 50,50 0 0 1 -50.00001,50 50,50 0 0 1 -50,-50 50,50 0 0 1 49.94727,-50 z m -63.94726,133.13867 v 20.80469 c 0,3.33337 2.6842,6.01562 6.01758,6.01562 H 588.1738 c 3.33338,0 6.01758,-2.68225 6.01758,-6.01562 v -20.80469 z" />
  <path
     id="rect913"
     style="fill:#1a1a1a;stroke-width:0.843171"
     d="m 316.97883,-43.82715 c -2.75861,0 -4.97852,2.2199 -4.97852,4.97851 v 21.93555 H 440.0003 v -21.93555 c 0,-2.75861 -2.22185,-4.97851 -4.98046,-4.97851 z m 44.42968,6.43945 h 29.17969 c 0.22735,0 0.41015,0.1828 0.41015,0.41016 v 14.17968 c 0,0.22736 -0.1828,0.41016 -0.41015,0.41016 h -29.17969 c -0.22736,0 -0.41015,-0.1828 -0.41015,-0.41016 v -14.17968 c 0,-0.22736 0.18279,-0.41016 0.41015,-0.41016 z m -34.4707,3.95312 a 3.5458438,3.5458438 0 0 1 0.0273,0 3.5458438,3.5458438 0 0 1 3.54493,3.54688 3.5458438,3.5458438 0 0 1 -3.54493,3.54492 3.5458438,3.5458438 0 0 1 -3.54687,-3.54492 3.5458438,3.5458438 0 0 1 3.51953,-3.54688 z m -14.9375,19.52149 V 108.25879 H 440.0003 V -13.91309 Z m 63.92383,21.08594 a 40,40 0 0 1 0.0762,0 40,40 0 0 1 39.99999,40 40,40 0 0 1 -39.99999,40 40,40 0 0 1 -40,-40 40,40 0 0 1 39.92383,-40 z m -63.92383,104.08594 v 21.93359 c 0,2.75861 2.21991,4.98047 4.97852,4.98047 h 118.04101 c 2.75861,0 4.98046,-2.22186 4.98046,-4.98047 v -21.93359 z" />
  <path
     id="rect1590"
     style="fill:#1a1a1a;fill-opacity:1;stroke-width:0.549532"
     d="M 2.10156,0 C 0.93703,0 0,0.93899 0,2.10352 v 140.7207 c 0,1.16453 0.93703,2.10156 2.10156,2.10156 h 44.27539 c 1.16453,0 2.10156,-0.93703 2.10156,-2.10156 V 94.02148 h 176.07423 v 48.80274 c 0,1.16453 0.93703,2.10156 2.10156,2.10156 h 44.27539 c 1.16453,0 2.10156,-0.93703 2.10156,-2.10156 V 2.10352 C 273.03125,0.93899 272.09422,0 270.92969,0 H 226.6543 c -1.16453,0 -2.10156,0.93899 -2.10156,2.10352 V 22.99219 H 48.47851 V 2.10352 C 48.47851,0.93899 47.54148,0 46.37695,0 Z M 237.8457,9.769534 h 21.89258 c 0.7168,0 1.29297,0.57617 1.29297,1.292969 V 25.06445 c 0,0.7168 -0.57617,1.29297 -1.29297,1.29297 H 237.8457 c -0.71679,0 -1.29492,-0.57617 -1.29492,-1.29297 V 11.062503 c 0,-0.716799 0.57813,-1.292969 1.29492,-1.292969 z M 48.47851,25.99219 H 224.55274 V 29.8125 H 48.47851 Z m 200.30469,7.17187 a 5.5585876,5.5585876 0 0 1 0.008,0 5.5585876,5.5585876 0 0 1 5.55859,5.5586 5.5585876,5.5585876 0 0 1 -5.55859,5.55859 5.5585876,5.5585876 0 0 1 -5.5586,-5.55859 5.5585876,5.5585876 0 0 1 5.55078,-5.5586 z M 48.47851,71.72656 h 176.07423 v 8.37305 H 48.47851 Z" />
</svg>
