<?xml version="1.0" encoding="UTF-8" standalone="no"?>
<svg
   xmlns:dc="http://purl.org/dc/elements/1.1/"
   xmlns:cc="http://creativecommons.org/ns#"
   xmlns:rdf="http://www.w3.org/1999/02/22-rdf-syntax-ns#"
   xmlns:svg="http://www.w3.org/2000/svg"
   xmlns="http://www.w3.org/2000/svg"
   xmlns:sodipodi="http://sodipodi.sourceforge.net/DTD/sodipodi-0.dtd"
   xmlns:inkscape="http://www.inkscape.org/namespaces/inkscape"
   width="127.99999"
   height="182"
   viewBox="0 0 127.99999 182"
   version="1.1"
   id="svg905"
   sodipodi:docname="washer.svg"
   inkscape:version="1.0.1 (0767f8302a, 2020-10-17)">
  <metadata
     id="metadata911">
    <rdf:RDF>
      <cc:Work
         rdf:about="">
        <dc:format>image/svg+xml</dc:format>
        <dc:type
           rdf:resource="http://purl.org/dc/dcmitype/StillImage" />
        <dc:title></dc:title>
      </cc:Work>
    </rdf:RDF>
  </metadata>
  <defs
     id="defs909" />
  <sodipodi:namedview
     pagecolor="#ffffff"
     bordercolor="#666666"
     borderopacity="1"
     objecttolerance="10"
     gridtolerance="10"
     guidetolerance="10"
     inkscape:pageopacity="0"
     inkscape:pageshadow="2"
     inkscape:window-width="1920"
     inkscape:window-height="964"
     id="namedview907"
     showgrid="false"
     showborder="false"
     fit-margin-top="0"
     fit-margin-left="0"
     fit-margin-right="0"
     fit-margin-bottom="0"
     inkscape:snap-bbox="false"
     inkscape:zoom="1.4640152"
     inkscape:cx="133.19036"
     inkscape:cy="123.11172"
     inkscape:window-x="0"
     inkscape:window-y="27"
     inkscape:window-maximized="1"
     inkscape:current-layer="svg905" />
  <path
     id="rect1556"
     style="fill:#1a1a1a;stroke-width:0.926857"
     d="m 160.20865,-33.4069 c -3.33338,0 -6.01758,2.68419 -6.01758,6.01757 V 1.41536 h 128 v -28.80469 c 0,-3.33338 -2.6842,-6.01757 -6.01758,-6.01757 z m 80.21679,9.39062 h 28.20704 c 0.23397,0 0.42187,0.18986 0.42187,0.42383 v 14.5918 c 0,0.23397 -0.1879,0.42187 -0.42187,0.42187 h -28.20704 c -0.23397,0 -0.42187,-0.1879 -0.42187,-0.42187 v -14.5918 c 0,-0.23397 0.1879,-0.42383 0.42187,-0.42383 z m -69.1582,3.71875 a 4,4 0 0 1 0.0606,0 4,4 0 0 1 4,4 4,4 0 0 1 -4,4 4,4 0 0 1 -4,-4 4,4 0 0 1 3.93945,-4 z M 154.19107,4.41536 V 156.6927 h 128 V 4.41536 Z m 63.94726,22.13867 a 50,50 0 0 1 0.0527,0 50,50 0 0 1 50.00001,50 50,50 0 0 1 -50.00001,50 50,50 0 0 1 -50,-50 50,50 0 0 1 49.94727,-50 z M 154.19107,159.6927 v 20.80469 c 0,3.33337 2.6842,6.01562 6.01758,6.01562 h 115.96484 c 3.33338,0 6.01758,-2.68225 6.01758,-6.01562 V 159.6927 Z" />
  <path
     id="rect913"
     style="fill:#1a1a1a;stroke-width:0.843171"
     d="M 4.97852,0 C 2.21991,0 0,2.2199 0,4.97851 V 26.91406 H 127.99999 V 4.97851 C 127.99999,2.2199 125.77814,0 123.01953,0 Z M 49.4082,6.43945 h 29.179685 c 0.227358,0 0.410156,0.1828 0.410156,0.41016 v 14.17968 c 0,0.22736 -0.182798,0.41016 -0.410156,0.41016 H 49.4082 c -0.22736,0 -0.41015,-0.1828 -0.41015,-0.41016 V 6.84961 c 0,-0.22736 0.18279,-0.41016 0.41015,-0.41016 z m -34.4707,3.95312 a 3.5458438,3.5458438 0 0 1 0.0273,0 3.5458438,3.5458438 0 0 1 3.54493,3.54688 3.5458438,3.5458438 0 0 1 -3.54493,3.54492 3.5458438,3.5458438 0 0 1 -3.54687,-3.54492 3.5458438,3.5458438 0 0 1 3.51953,-3.54688 z M 0,29.91406 V 152.08594 H 127.99999 V 29.91406 Z M 63.923828,51 a 40,40 0 0 1 0.0762,0 A 40,40 0 0 1 104.00002,91 40,40 0 0 1 64.000028,131 40,40 0 0 1 24.00003,91 40,40 0 0 1 63.923858,51 Z M 0,155.08594 v 21.93359 C 0,179.77814 2.21991,182 4.97852,182 h 118.04101 c 2.75861,0 4.98046,-2.22186 4.98046,-4.98047 v -21.93359 z" />
  <path
     id="rect1590"
     style="fill:#1a1a1a;fill-opacity:1;stroke-width:0.549532"
     d="m -309.89875,43.82715 c -1.16453,0 -2.10156,0.93899 -2.10156,2.10352 v 140.7207 c 0,1.16453 0.93703,2.10156 2.10156,2.10156 h 44.27539 c 1.16453,0 2.10156,-0.93703 2.10156,-2.10156 v -48.80274 h 176.07423 v 48.80274 c 0,1.16453 0.93703,2.10156 2.10156,2.10156 h 44.27539 c 1.16453,0 2.10156,-0.93703 2.10156,-2.10156 V 45.93067 c 0,-1.16453 -0.93703,-2.10352 -2.10156,-2.10352 h -44.27539 c -1.16453,0 -2.10156,0.93899 -2.10156,2.10352 V 66.81934 H -263.5218 V 45.93067 c 0,-1.16453 -0.93703,-2.10352 -2.10156,-2.10352 z m 235.74414,9.769534 h 21.89258 c 0.7168,0 1.29297,0.57617 1.29297,1.292969 V 68.8916 c 0,0.7168 -0.57617,1.29297 -1.29297,1.29297 h -21.89258 c -0.71679,0 -1.29492,-0.57617 -1.29492,-1.29297 V 54.889653 c 0,-0.716799 0.57813,-1.292969 1.29492,-1.292969 z M -263.5218,69.81934 h 176.07423 v 3.82031 H -263.5218 Z m 200.30469,7.17187 a 5.5585876,5.5585876 0 0 1 0.008,0 5.5585876,5.5585876 0 0 1 5.55859,5.5586 5.5585876,5.5585876 0 0 1 -5.55859,5.55859 5.5585876,5.5585876 0 0 1 -5.5586,-5.55859 5.5585876,5.5585876 0 0 1 5.55078,-5.5586 z m -200.30469,38.5625 h 176.07423 v 8.37305 H -263.5218 Z" />
</svg>
